<svg xmlns="http://www.w3.org/2000/svg" width="420" height="200" viewBox="0 0 420 200" font-family="ui-monospace, SFMono-Regular, Menlo, monospace">
<rect width="420" height="200" rx="8" fill="#0c0c0c" stroke="#262626"/>
<circle cx="18" cy="16" r="5" fill="#ff5f57"/>
<circle cx="36" cy="16" r="5" fill="#febc2e"/>
<circle cx="54" cy="16" r="5" fill="#28c840"/>
<text x="210" y="20" text-anchor="middle" font-size="11" fill="#8a8a8a">ntchz@shipfold: contributions</text>
<line x1="0" y1="30" x2="420" y2="30" stroke="#262626"/>
<text x="24" y="48" font-size="12" fill="#8a8a8a">$ contributions --past-year  <tspan fill="#ff4d00">248 total</tspan></text>
<rect class="day" x="24" y="64" width="6" height="6" rx="1" fill="#1b1b1b"/><rect class="day" x="24" y="71" width="6" height="6" rx="1" fill="#1b1b1b"/><rect class="day" x="24" y="78" width="6" height="6" rx="1" fill="#1b1b1b"/><rect class="day" x="24" y="85" width="6" height="6" rx="1" fill="#1b1b1b"/><rect class="day" x="24" y="92" width="6" height="6" rx="1" fill="#1b1b1b"/><rect class="day" x="24" y="99" width="6" height="6" rx="1" fill="#1b1b1b"/><rect class="day" x="24" y="106" width="6" height="6" rx="1" fill="#4a2210"/>
<rect class="day" x="31" y="64" width="6" height="6" rx="1" fill="#1b1b1b"/><rect class="day" x="31" y="71" width="6" height="6" rx="1" fill="#4a2210"/><rect class="day" x="31" y="78" width="6" height="6" rx="1" fill="#1b1b1b"/><rect class="day" x="31" y="85" width="6" height="6" rx="1" fill="#1b1b1b"/><rect class="day" x="31" y="92" width="6" height="6" rx="1" fill="#ff4d00"/><rect class="day" x="31" y="99" width="6" height="6" rx="1" fill="#1b1b1b"/><rect class="day" x="31" y="106" width="6" height="6" rx="1" fill="#1b1b1b"/>
<rect class="day" x="38" y="64" width="6" height="6" rx="1" fill="#1b1b1b"/><rect class="day" x="38" y="71" width="6" height="6" rx="1" fill="#1b1b1b"/><rect class="day" x="38" y="78" width="6" height="6" rx="1" fill="#1b1b1b"/><rect class="day" x="38" y="85" width="6" height="6" rx="1" fill="#1b1b1b"/><rect class="day" x="38" y="92" width="6" height="6" rx="1" fill="#1b1b1b"/><rect class="day" x="38" y="99" width="6" height="6" rx="1" fill="#1b1b1b"/><rect class="day" x="38" y="106" width="6" height="6" rx="1" fill="#1b1b1b"/>
<rect class="day" x="45" y="64" width="6" height="6" rx="1" fill="#4a2210"/><rect class="day" x="45" y="71" width="6" height="6" rx="1" fill="#8a3a12"/><rect class="day" x="45" y="78" width="6" height="6" rx="1" fill="#1b1b1b"/><rect class="day" x="45" y="85" width="6" height="6" rx="1" fill="#1b1b1b"/><rect class="day" x="45" y="92" width="6" height="6" rx="1" fill="#1b1b1b"/><rect class="day" x="45" y="99" width="6" height="6" rx="1" fill="#1b1b1b"/><rect class="day" x="45" y="106" width="6" height="6" rx="1" fill="#1b1b1b"/>
<rect class="day" x="52" y="64" width="6" height="6" rx="1" fill="#1b1b1b"/><rect class="day" x="52" y="71" width="6" height="6" rx="1" fill="#1b1b1b"/><rect class="day" x="52" y="78" width="6" height="6" rx="1" fill="#1b1b1b"/><rect class="day" x="52" y="85" width="6" height="6" rx="1" fill="#1b1b1b"/><rect class="day" x="52" y="92" width="6" height="6" rx="1" fill="#1b1b1b"/><rect class="day" x="52" y="99" width="6" height="6" rx="1" fill="#1b1b1b"/><rect class="day" x="52" y="106" width="6" height="6" rx="1" fill="#1b1b1b"/>
<rect class="day" x="59" y="64" width="6" height="6" rx="1" fill="#1b1b1b"/><rect class="day" x="59" y="71" width="6" height="6" rx="1" fill="#1b1b1b"/><rect class="day" x="59" y="78" width="6" height="6" rx="1" fill="#4a2210"/><rect class="day" x="59" y="85" width="6" height="6" rx="1" fill="#1b1b1b"/><rect class="day" x="59" y="92" width="6" height="6" rx="1" fill="#1b1b1b"/><rect class="day" x="59" y="99" width="6" height="6" rx="1" fill="#1b1b1b"/><rect class="day" x="59" y="106" width="6" height="6" rx="1" fill="#1b1b1b"/>
<rect class="day" x="66" y="64" width="6" height="6" rx="1" fill="#1b1b1b"/><rect class="day" x="66" y="71" width="6" height="6" rx="1" fill="#1b1b1b"/><rect class="day" x="66" y="78" width="6" height="6" rx="1" fill="#1b1b1b"/><rect class="day" x="66" y="85" width="6" height="6" rx="1" fill="#1b1b1b"/><rect class="day" x="66" y="92" width="6" height="6" rx="1" fill="#1b1b1b"/><rect class="day" x="66" y="99" width="6" height="6" rx="1" fill="#1b1b1b"/><rect class="day" x="66" y="106" width="6" height="6" rx="1" fill="#1b1b1b"/>
<rect class="day" x="73" y="64" width="6" height="6" rx="1" fill="#1b1b1b"/><rect class="day" x="73" y="71" width="6" height="6" rx="1" fill="#1b1b1b"/><rect class="day" x="73" y="78" width="6" height="6" rx="1" fill="#4a2210"/><rect class="day" x="73" y="85" width="6" height="6" rx="1" fill="#1b1b1b"/><rect class="day" x="73" y="92" width="6" height="6" rx="1" fill="#1b1b1b"/><rect class="day" x="73" y="99" width="6" height="6" rx="1" fill="#1b1b1b"/><rect class="day" x="73" y="106" width="6" height="6" rx="1" fill="#1b1b1b"/>
<rect class="day" x="80" y="64" width="6" height="6" rx="1" fill="#1b1b1b"/><rect class="day" x="80" y="71" width="6" height="6" rx="1" fill="#4a2210"/><rect class="day" x="80" y="78" width="6" height="6" rx="1" fill="#4a2210"/><rect class="day" x="80" y="85" width="6" height="6" rx="1" fill="#8a3a12"/><rect class="day" x="80" y="92" width="6" height="6" rx="1" fill="#8a3a12"/><rect class="day" x="80" y="99" width="6" height="6" rx="1" fill="#1b1b1b"/><rect class="day" x="80" y="106" width="6" height="6" rx="1" fill="#8a3a12"/>
<rect class="day" x="87" y="64" width="6" height="6" rx="1" fill="#1b1b1b"/><rect class="day" x="87" y="71" width="6" height="6" rx="1" fill="#cc4406"/><rect class="day" x="87" y="78" width="6" height="6" rx="1" fill="#1b1b1b"/><rect class="day" x="87" y="85" width="6" height="6" rx="1" fill="#1b1b1b"/><rect class="day" x="87" y="92" width="6" height="6" rx="1" fill="#1b1b1b"/><rect class="day" x="87" y="99" width="6" height="6" rx="1" fill="#1b1b1b"/><rect class="day" x="87" y="106" width="6" height="6" rx="1" fill="#cc4406"/>
<rect class="day" x="94" y="64" width="6" height="6" rx="1" fill="#1b1b1b"/><rect class="day" x="94" y="71" width="6" height="6" rx="1" fill="#1b1b1b"/><rect class="day" x="94" y="78" width="6" height="6" rx="1" fill="#1b1b1b"/><rect class="day" x="94" y="85" width="6" height="6" rx="1" fill="#1b1b1b"/><rect class="day" x="94" y="92" width="6" height="6" rx="1" fill="#1b1b1b"/><rect class="day" x="94" y="99" width="6" height="6" rx="1" fill="#4a2210"/><rect class="day" x="94" y="106" width="6" height="6" rx="1" fill="#8a3a12"/>
<rect class="day" x="101" y="64" width="6" height="6" rx="1" fill="#4a2210"/><rect class="day" x="101" y="71" width="6" height="6" rx="1" fill="#cc4406"/><rect class="day" x="101" y="78" width="6" height="6" rx="1" fill="#1b1b1b"/><rect class="day" x="101" y="85" width="6" height="6" rx="1" fill="#1b1b1b"/><rect class="day" x="101" y="92" width="6" height="6" rx="1" fill="#1b1b1b"/><rect class="day" x="101" y="99" width="6" height="6" rx="1" fill="#8a3a12"/><rect class="day" x="101" y="106" width="6" height="6" rx="1" fill="#8a3a12"/>
<rect class="day" x="108" y="64" width="6" height="6" rx="1" fill="#4a2210"/><rect class="day" x="108" y="71" width="6" height="6" rx="1" fill="#1b1b1b"/><rect class="day" x="108" y="78" width="6" height="6" rx="1" fill="#4a2210"/><rect class="day" x="108" y="85" width="6" height="6" rx="1" fill="#1b1b1b"/><rect class="day" x="108" y="92" width="6" height="6" rx="1" fill="#1b1b1b"/><rect class="day" x="108" y="99" width="6" height="6" rx="1" fill="#1b1b1b"/><rect class="day" x="108" y="106" width="6" height="6" rx="1" fill="#1b1b1b"/>
<rect class="day" x="115" y="64" width="6" height="6" rx="1" fill="#1b1b1b"/><rect class="day" x="115" y="71" width="6" height="6" rx="1" fill="#cc4406"/><rect class="day" x="115" y="78" width="6" height="6" rx="1" fill="#8a3a12"/><rect class="day" x="115" y="85" width="6" height="6" rx="1" fill="#1b1b1b"/><rect class="day" x="115" y="92" width="6" height="6" rx="1" fill="#1b1b1b"/><rect class="day" x="115" y="99" width="6" height="6" rx="1" fill="#1b1b1b"/><rect class="day" x="115" y="106" width="6" height="6" rx="1" fill="#8a3a12"/>
<rect class="day" x="122" y="64" width="6" height="6" rx="1" fill="#1b1b1b"/><rect class="day" x="122" y="71" width="6" height="6" rx="1" fill="#1b1b1b"/><rect class="day" x="122" y="78" width="6" height="6" rx="1" fill="#1b1b1b"/><rect class="day" x="122" y="85" width="6" height="6" rx="1" fill="#4a2210"/><rect class="day" x="122" y="92" width="6" height="6" rx="1" fill="#1b1b1b"/><rect class="day" x="122" y="99" width="6" height="6" rx="1" fill="#4a2210"/><rect class="day" x="122" y="106" width="6" height="6" rx="1" fill="#1b1b1b"/>
<rect class="day" x="129" y="64" width="6" height="6" rx="1" fill="#1b1b1b"/><rect class="day" x="129" y="71" width="6" height="6" rx="1" fill="#1b1b1b"/><rect class="day" x="129" y="78" width="6" height="6" rx="1" fill="#1b1b1b"/><rect class="day" x="129" y="85" width="6" height="6" rx="1" fill="#1b1b1b"/><rect class="day" x="129" y="92" width="6" height="6" rx="1" fill="#1b1b1b"/><rect class="day" x="129" y="99" width="6" height="6" rx="1" fill="#1b1b1b"/><rect class="day" x="129" y="106" width="6" height="6" rx="1" fill="#1b1b1b"/>
<rect class="day" x="136" y="64" width="6" height="6" rx="1" fill="#4a2210"/><rect class="day" x="136" y="71" width="6" height="6" rx="1" fill="#1b1b1b"/><rect class="day" x="136" y="78" width="6" height="6" rx="1" fill="#1b1b1b"/><rect class="day" x="136" y="85" width="6" height="6" rx="1" fill="#1b1b1b"/><rect class="day" x="136" y="92" width="6" height="6" rx="1" fill="#1b1b1b"/><rect class="day" x="136" y="99" width="6" height="6" rx="1" fill="#1b1b1b"/><rect class="day" x="136" y="106" width="6" height="6" rx="1" fill="#1b1b1b"/>
<rect class="day" x="143" y="64" width="6" height="6" rx="1" fill="#1b1b1b"/><rect class="day" x="143" y="71" width="6" height="6" rx="1" fill="#1b1b1b"/><rect class="day" x="143" y="78" width="6" height="6" rx="1" fill="#1b1b1b"/><rect class="day" x="143" y="85" width="6" height="6" rx="1" fill="#1b1b1b"/><rect class="day" x="143" y="92" width="6" height="6" rx="1" fill="#1b1b1b"/><rect class="day" x="143" y="99" width="6" height="6" rx="1" fill="#1b1b1b"/><rect class="day" x="143" y="106" width="6" height="6" rx="1" fill="#1b1b1b"/>
<rect class="day" x="150" y="64" width="6" height="6" rx="1" fill="#1b1b1b"/><rect class="day" x="150" y="71" width="6" height="6" rx="1" fill="#1b1b1b"/><rect class="day" x="150" y="78" width="6" height="6" rx="1" fill="#1b1b1b"/><rect class="day" x="150" y="85" width="6" height="6" rx="1" fill="#1b1b1b"/><rect class="day" x="150" y="92" width="6" height="6" rx="1" fill="#1b1b1b"/><rect class="day" x="150" y="99" width="6" height="6" rx="1" fill="#1b1b1b"/><rect class="day" x="150" y="106" width="6" height="6" rx="1" fill="#1b1b1b"/>
<rect class="day" x="157" y="64" width="6" height="6" rx="1" fill="#1b1b1b"/><rect class="day" x="157" y="71" width="6" height="6" rx="1" fill="#1b1b1b"/><rect class="day" x="157" y="78" width="6" height="6" rx="1" fill="#1b1b1b"/><rect class="day" x="157" y="85" width="6" height="6" rx="1" fill="#cc4406"/><rect class="day" x="157" y="92" width="6" height="6" rx="1" fill="#1b1b1b"/><rect class="day" x="157" y="99" width="6" height="6" rx="1" fill="#1b1b1b"/><rect class="day" x="157" y="106" width="6" height="6" rx="1" fill="#1b1b1b"/>
<rect class="day" x="164" y="64" width="6" height="6" rx="1" fill="#1b1b1b"/><rect class="day" x="164" y="71" width="6" height="6" rx="1" fill="#1b1b1b"/><rect class="day" x="164" y="78" width="6" height="6" rx="1" fill="#1b1b1b"/><rect class="day" x="164" y="85" width="6" height="6" rx="1" fill="#1b1b1b"/><rect class="day" x="164" y="92" width="6" height="6" rx="1" fill="#1b1b1b"/><rect class="day" x="164" y="99" width="6" height="6" rx="1" fill="#1b1b1b"/><rect class="day" x="164" y="106" width="6" height="6" rx="1" fill="#1b1b1b"/>
<rect class="day" x="171" y="64" width="6" height="6" rx="1" fill="#1b1b1b"/><rect class="day" x="171" y="71" width="6" height="6" rx="1" fill="#1b1b1b"/><rect class="day" x="171" y="78" width="6" height="6" rx="1" fill="#1b1b1b"/><rect class="day" x="171" y="85" width="6" height="6" rx="1" fill="#1b1b1b"/><rect class="day" x="171" y="92" width="6" height="6" rx="1" fill="#1b1b1b"/><rect class="day" x="171" y="99" width="6" height="6" rx="1" fill="#1b1b1b"/><rect class="day" x="171" y="106" width="6" height="6" rx="1" fill="#1b1b1b"/>
<rect class="day" x="178" y="64" width="6" height="6" rx="1" fill="#1b1b1b"/><rect class="day" x="178" y="71" width="6" height="6" rx="1" fill="#1b1b1b"/><rect class="day" x="178" y="78" width="6" height="6" rx="1" fill="#1b1b1b"/><rect class="day" x="178" y="85" width="6" height="6" rx="1" fill="#1b1b1b"/><rect class="day" x="178" y="92" width="6" height="6" rx="1" fill="#1b1b1b"/><rect class="day" x="178" y="99" width="6" height="6" rx="1" fill="#1b1b1b"/><rect class="day" x="178" y="106" width="6" height="6" rx="1" fill="#1b1b1b"/>
<rect class="day" x="185" y="64" width="6" height="6" rx="1" fill="#1b1b1b"/><rect class="day" x="185" y="71" width="6" height="6" rx="1" fill="#1b1b1b"/><rect class="day" x="185" y="78" width="6" height="6" rx="1" fill="#1b1b1b"/><rect class="day" x="185" y="85" width="6" height="6" rx="1" fill="#1b1b1b"/><rect class="day" x="185" y="92" width="6" height="6" rx="1" fill="#1b1b1b"/><rect class="day" x="185" y="99" width="6" height="6" rx="1" fill="#1b1b1b"/><rect class="day" x="185" y="106" width="6" height="6" rx="1" fill="#1b1b1b"/>
<rect class="day" x="192" y="64" width="6" height="6" rx="1" fill="#1b1b1b"/><rect class="day" x="192" y="71" width="6" height="6" rx="1" fill="#1b1b1b"/><rect class="day" x="192" y="78" width="6" height="6" rx="1" fill="#1b1b1b"/><rect class="day" x="192" y="85" width="6" height="6" rx="1" fill="#1b1b1b"/><rect class="day" x="192" y="92" width="6" height="6" rx="1" fill="#1b1b1b"/><rect class="day" x="192" y="99" width="6" height="6" rx="1" fill="#1b1b1b"/><rect class="day" x="192" y="106" width="6" height="6" rx="1" fill="#1b1b1b"/>
<rect class="day" x="199" y="64" width="6" height="6" rx="1" fill="#1b1b1b"/><rect class="day" x="199" y="71" width="6" height="6" rx="1" fill="#1b1b1b"/><rect class="day" x="199" y="78" width="6" height="6" rx="1" fill="#1b1b1b"/><rect class="day" x="199" y="85" width="6" height="6" rx="1" fill="#1b1b1b"/><rect class="day" x="199" y="92" width="6" height="6" rx="1" fill="#1b1b1b"/><rect class="day" x="199" y="99" width="6" height="6" rx="1" fill="#1b1b1b"/><rect class="day" x="199" y="106" width="6" height="6" rx="1" fill="#1b1b1b"/>
<rect class="day" x="206" y="64" width="6" height="6" rx="1" fill="#1b1b1b"/><rect class="day" x="206" y="71" width="6" height="6" rx="1" fill="#1b1b1b"/><rect class="day" x="206" y="78" width="6" height="6" rx="1" fill="#1b1b1b"/><rect class="day" x="206" y="85" width="6" height="6" rx="1" fill="#1b1b1b"/><rect class="day" x="206" y="92" width="6" height="6" rx="1" fill="#1b1b1b"/><rect class="day" x="206" y="99" width="6" height="6" rx="1" fill="#1b1b1b"/><rect class="day" x="206" y="106" width="6" height="6" rx="1" fill="#1b1b1b"/>
<rect class="day" x="213" y="64" width="6" height="6" rx="1" fill="#1b1b1b"/><rect class="day" x="213" y="71" width="6" height="6" rx="1" fill="#1b1b1b"/><rect class="day" x="213" y="78" width="6" height="6" rx="1" fill="#1b1b1b"/><rect class="day" x="213" y="85" width="6" height="6" rx="1" fill="#1b1b1b"/><rect class="day" x="213" y="92" width="6" height="6" rx="1" fill="#1b1b1b"/><rect class="day" x="213" y="99" width="6" height="6" rx="1" fill="#1b1b1b"/><rect class="day" x="213" y="106" width="6" height="6" rx="1" fill="#1b1b1b"/>
<rect class="day" x="220" y="64" width="6" height="6" rx="1" fill="#1b1b1b"/><rect class="day" x="220" y="71" width="6" height="6" rx="1" fill="#1b1b1b"/><rect class="day" x="220" y="78" width="6" height="6" rx="1" fill="#1b1b1b"/><rect class="day" x="220" y="85" width="6" height="6" rx="1" fill="#1b1b1b"/><rect class="day" x="220" y="92" width="6" height="6" rx="1" fill="#1b1b1b"/><rect class="day" x="220" y="99" width="6" height="6" rx="1" fill="#1b1b1b"/><rect class="day" x="220" y="106" width="6" height="6" rx="1" fill="#1b1b1b"/>
<rect class="day" x="227" y="64" width="6" height="6" rx="1" fill="#1b1b1b"/><rect class="day" x="227" y="71" width="6" height="6" rx="1" fill="#1b1b1b"/><rect class="day" x="227" y="78" width="6" height="6" rx="1" fill="#1b1b1b"/><rect class="day" x="227" y="85" width="6" height="6" rx="1" fill="#1b1b1b"/><rect class="day" x="227" y="92" width="6" height="6" rx="1" fill="#1b1b1b"/><rect class="day" x="227" y="99" width="6" height="6" rx="1" fill="#1b1b1b"/><rect class="day" x="227" y="106" width="6" height="6" rx="1" fill="#1b1b1b"/>
<rect class="day" x="234" y="64" width="6" height="6" rx="1" fill="#1b1b1b"/><rect class="day" x="234" y="71" width="6" height="6" rx="1" fill="#1b1b1b"/><rect class="day" x="234" y="78" width="6" height="6" rx="1" fill="#1b1b1b"/><rect class="day" x="234" y="85" width="6" height="6" rx="1" fill="#1b1b1b"/><rect class="day" x="234" y="92" width="6" height="6" rx="1" fill="#1b1b1b"/><rect class="day" x="234" y="99" width="6" height="6" rx="1" fill="#1b1b1b"/><rect class="day" x="234" y="106" width="6" height="6" rx="1" fill="#1b1b1b"/>
<rect class="day" x="241" y="64" width="6" height="6" rx="1" fill="#1b1b1b"/><rect class="day" x="241" y="71" width="6" height="6" rx="1" fill="#1b1b1b"/><rect class="day" x="241" y="78" width="6" height="6" rx="1" fill="#1b1b1b"/><rect class="day" x="241" y="85" width="6" height="6" rx="1" fill="#1b1b1b"/><rect class="day" x="241" y="92" width="6" height="6" rx="1" fill="#1b1b1b"/><rect class="day" x="241" y="99" width="6" height="6" rx="1" fill="#1b1b1b"/><rect class="day" x="241" y="106" width="6" height="6" rx="1" fill="#1b1b1b"/>
<rect class="day" x="248" y="64" width="6" height="6" rx="1" fill="#1b1b1b"/><rect class="day" x="248" y="71" width="6" height="6" rx="1" fill="#1b1b1b"/><rect class="day" x="248" y="78" width="6" height="6" rx="1" fill="#1b1b1b"/><rect class="day" x="248" y="85" width="6" height="6" rx="1" fill="#1b1b1b"/><rect class="day" x="248" y="92" width="6" height="6" rx="1" fill="#1b1b1b"/><rect class="day" x="248" y="99" width="6" height="6" rx="1" fill="#1b1b1b"/><rect class="day" x="248" y="106" width="6" height="6" rx="1" fill="#1b1b1b"/>
<rect class="day" x="255" y="64" width="6" height="6" rx="1" fill="#1b1b1b"/><rect class="day" x="255" y="71" width="6" height="6" rx="1" fill="#1b1b1b"/><rect class="day" x="255" y="78" width="6" height="6" rx="1" fill="#1b1b1b"/><rect class="day" x="255" y="85" width="6" height="6" rx="1" fill="#1b1b1b"/><rect class="day" x="255" y="92" width="6" height="6" rx="1" fill="#1b1b1b"/><rect class="day" x="255" y="99" width="6" height="6" rx="1" fill="#1b1b1b"/><rect class="day" x="255" y="106" width="6" height="6" rx="1" fill="#1b1b1b"/>
<rect class="day" x="262" y="64" width="6" height="6" rx="1" fill="#1b1b1b"/><rect class="day" x="262" y="71" width="6" height="6" rx="1" fill="#1b1b1b"/><rect class="day" x="262" y="78" width="6" height="6" rx="1" fill="#1b1b1b"/><rect class="day" x="262" y="85" width="6" height="6" rx="1" fill="#1b1b1b"/><rect class="day" x="262" y="92" width="6" height="6" rx="1" fill="#1b1b1b"/><rect class="day" x="262" y="99" width="6" height="6" rx="1" fill="#1b1b1b"/><rect class="day" x="262" y="106" width="6" height="6" rx="1" fill="#1b1b1b"/>
<rect class="day" x="269" y="64" width="6" height="6" rx="1" fill="#1b1b1b"/><rect class="day" x="269" y="71" width="6" height="6" rx="1" fill="#1b1b1b"/><rect class="day" x="269" y="78" width="6" height="6" rx="1" fill="#1b1b1b"/><rect class="day" x="269" y="85" width="6" height="6" rx="1" fill="#1b1b1b"/><rect class="day" x="269" y="92" width="6" height="6" rx="1" fill="#1b1b1b"/><rect class="day" x="269" y="99" width="6" height="6" rx="1" fill="#1b1b1b"/><rect class="day" x="269" y="106" width="6" height="6" rx="1" fill="#1b1b1b"/>
<rect class="day" x="276" y="64" width="6" height="6" rx="1" fill="#1b1b1b"/><rect class="day" x="276" y="71" width="6" height="6" rx="1" fill="#1b1b1b"/><rect class="day" x="276" y="78" width="6" height="6" rx="1" fill="#1b1b1b"/><rect class="day" x="276" y="85" width="6" height="6" rx="1" fill="#1b1b1b"/><rect class="day" x="276" y="92" width="6" height="6" rx="1" fill="#1b1b1b"/><rect class="day" x="276" y="99" width="6" height="6" rx="1" fill="#1b1b1b"/><rect class="day" x="276" y="106" width="6" height="6" rx="1" fill="#1b1b1b"/>
<rect class="day" x="283" y="64" width="6" height="6" rx="1" fill="#1b1b1b"/><rect class="day" x="283" y="71" width="6" height="6" rx="1" fill="#1b1b1b"/><rect class="day" x="283" y="78" width="6" height="6" rx="1" fill="#1b1b1b"/><rect class="day" x="283" y="85" width="6" height="6" rx="1" fill="#1b1b1b"/><rect class="day" x="283" y="92" width="6" height="6" rx="1" fill="#1b1b1b"/><rect class="day" x="283" y="99" width="6" height="6" rx="1" fill="#1b1b1b"/><rect class="day" x="283" y="106" width="6" height="6" rx="1" fill="#1b1b1b"/>
<rect class="day" x="290" y="64" width="6" height="6" rx="1" fill="#1b1b1b"/><rect class="day" x="290" y="71" width="6" height="6" rx="1" fill="#1b1b1b"/><rect class="day" x="290" y="78" width="6" height="6" rx="1" fill="#1b1b1b"/><rect class="day" x="290" y="85" width="6" height="6" rx="1" fill="#1b1b1b"/><rect class="day" x="290" y="92" width="6" height="6" rx="1" fill="#1b1b1b"/><rect class="day" x="290" y="99" width="6" height="6" rx="1" fill="#1b1b1b"/><rect class="day" x="290" y="106" width="6" height="6" rx="1" fill="#1b1b1b"/>
<rect class="day" x="297" y="64" width="6" height="6" rx="1" fill="#1b1b1b"/><rect class="day" x="297" y="71" width="6" height="6" rx="1" fill="#1b1b1b"/><rect class="day" x="297" y="78" width="6" height="6" rx="1" fill="#1b1b1b"/><rect class="day" x="297" y="85" width="6" height="6" rx="1" fill="#1b1b1b"/><rect class="day" x="297" y="92" width="6" height="6" rx="1" fill="#1b1b1b"/><rect class="day" x="297" y="99" width="6" height="6" rx="1" fill="#1b1b1b"/><rect class="day" x="297" y="106" width="6" height="6" rx="1" fill="#1b1b1b"/>
<rect class="day" x="304" y="64" width="6" height="6" rx="1" fill="#1b1b1b"/><rect class="day" x="304" y="71" width="6" height="6" rx="1" fill="#1b1b1b"/><rect class="day" x="304" y="78" width="6" height="6" rx="1" fill="#4a2210"/><rect class="day" x="304" y="85" width="6" height="6" rx="1" fill="#1b1b1b"/><rect class="day" x="304" y="92" width="6" height="6" rx="1" fill="#4a2210"/><rect class="day" x="304" y="99" width="6" height="6" rx="1" fill="#1b1b1b"/><rect class="day" x="304" y="106" width="6" height="6" rx="1" fill="#1b1b1b"/>
<rect class="day" x="311" y="64" width="6" height="6" rx="1" fill="#1b1b1b"/><rect class="day" x="311" y="71" width="6" height="6" rx="1" fill="#1b1b1b"/><rect class="day" x="311" y="78" width="6" height="6" rx="1" fill="#4a2210"/><rect class="day" x="311" y="85" width="6" height="6" rx="1" fill="#4a2210"/><rect class="day" x="311" y="92" width="6" height="6" rx="1" fill="#4a2210"/><rect class="day" x="311" y="99" width="6" height="6" rx="1" fill="#1b1b1b"/><rect class="day" x="311" y="106" width="6" height="6" rx="1" fill="#1b1b1b"/>
<rect class="day" x="318" y="64" width="6" height="6" rx="1" fill="#1b1b1b"/><rect class="day" x="318" y="71" width="6" height="6" rx="1" fill="#1b1b1b"/><rect class="day" x="318" y="78" width="6" height="6" rx="1" fill="#1b1b1b"/><rect class="day" x="318" y="85" width="6" height="6" rx="1" fill="#1b1b1b"/><rect class="day" x="318" y="92" width="6" height="6" rx="1" fill="#1b1b1b"/><rect class="day" x="318" y="99" width="6" height="6" rx="1" fill="#1b1b1b"/><rect class="day" x="318" y="106" width="6" height="6" rx="1" fill="#1b1b1b"/>
<rect class="day" x="325" y="64" width="6" height="6" rx="1" fill="#1b1b1b"/><rect class="day" x="325" y="71" width="6" height="6" rx="1" fill="#1b1b1b"/><rect class="day" x="325" y="78" width="6" height="6" rx="1" fill="#1b1b1b"/><rect class="day" x="325" y="85" width="6" height="6" rx="1" fill="#1b1b1b"/><rect class="day" x="325" y="92" width="6" height="6" rx="1" fill="#1b1b1b"/><rect class="day" x="325" y="99" width="6" height="6" rx="1" fill="#1b1b1b"/><rect class="day" x="325" y="106" width="6" height="6" rx="1" fill="#1b1b1b"/>
<rect class="day" x="332" y="64" width="6" height="6" rx="1" fill="#1b1b1b"/><rect class="day" x="332" y="71" width="6" height="6" rx="1" fill="#1b1b1b"/><rect class="day" x="332" y="78" width="6" height="6" rx="1" fill="#1b1b1b"/><rect class="day" x="332" y="85" width="6" height="6" rx="1" fill="#1b1b1b"/><rect class="day" x="332" y="92" width="6" height="6" rx="1" fill="#1b1b1b"/><rect class="day" x="332" y="99" width="6" height="6" rx="1" fill="#1b1b1b"/><rect class="day" x="332" y="106" width="6" height="6" rx="1" fill="#1b1b1b"/>
<rect class="day" x="339" y="64" width="6" height="6" rx="1" fill="#1b1b1b"/><rect class="day" x="339" y="71" width="6" height="6" rx="1" fill="#1b1b1b"/><rect class="day" x="339" y="78" width="6" height="6" rx="1" fill="#1b1b1b"/><rect class="day" x="339" y="85" width="6" height="6" rx="1" fill="#1b1b1b"/><rect class="day" x="339" y="92" width="6" height="6" rx="1" fill="#1b1b1b"/><rect class="day" x="339" y="99" width="6" height="6" rx="1" fill="#1b1b1b"/><rect class="day" x="339" y="106" width="6" height="6" rx="1" fill="#1b1b1b"/>
<rect class="day" x="346" y="64" width="6" height="6" rx="1" fill="#1b1b1b"/><rect class="day" x="346" y="71" width="6" height="6" rx="1" fill="#1b1b1b"/><rect class="day" x="346" y="78" width="6" height="6" rx="1" fill="#1b1b1b"/><rect class="day" x="346" y="85" width="6" height="6" rx="1" fill="#1b1b1b"/><rect class="day" x="346" y="92" width="6" height="6" rx="1" fill="#1b1b1b"/><rect class="day" x="346" y="99" width="6" height="6" rx="1" fill="#1b1b1b"/><rect class="day" x="346" y="106" width="6" height="6" rx="1" fill="#1b1b1b"/>
<rect class="day" x="353" y="64" width="6" height="6" rx="1" fill="#1b1b1b"/><rect class="day" x="353" y="71" width="6" height="6" rx="1" fill="#1b1b1b"/><rect class="day" x="353" y="78" width="6" height="6" rx="1" fill="#1b1b1b"/><rect class="day" x="353" y="85" width="6" height="6" rx="1" fill="#1b1b1b"/><rect class="day" x="353" y="92" width="6" height="6" rx="1" fill="#1b1b1b"/><rect class="day" x="353" y="99" width="6" height="6" rx="1" fill="#1b1b1b"/><rect class="day" x="353" y="106" width="6" height="6" rx="1" fill="#1b1b1b"/>
<rect class="day" x="360" y="64" width="6" height="6" rx="1" fill="#1b1b1b"/><rect class="day" x="360" y="71" width="6" height="6" rx="1" fill="#1b1b1b"/><rect class="day" x="360" y="78" width="6" height="6" rx="1" fill="#1b1b1b"/><rect class="day" x="360" y="85" width="6" height="6" rx="1" fill="#1b1b1b"/><rect class="day" x="360" y="92" width="6" height="6" rx="1" fill="#1b1b1b"/><rect class="day" x="360" y="99" width="6" height="6" rx="1" fill="#1b1b1b"/><rect class="day" x="360" y="106" width="6" height="6" rx="1" fill="#1b1b1b"/>
<rect class="day" x="367" y="64" width="6" height="6" rx="1" fill="#1b1b1b"/><rect class="day" x="367" y="71" width="6" height="6" rx="1" fill="#1b1b1b"/><rect class="day" x="367" y="78" width="6" height="6" rx="1" fill="#1b1b1b"/><rect class="day" x="367" y="85" width="6" height="6" rx="1" fill="#1b1b1b"/><rect class="day" x="367" y="92" width="6" height="6" rx="1" fill="#1b1b1b"/><rect class="day" x="367" y="99" width="6" height="6" rx="1" fill="#1b1b1b"/><rect class="day" x="367" y="106" width="6" height="6" rx="1" fill="#1b1b1b"/>
<rect class="day" x="374" y="64" width="6" height="6" rx="1" fill="#1b1b1b"/><rect class="day" x="374" y="71" width="6" height="6" rx="1" fill="#1b1b1b"/><rect class="day" x="374" y="78" width="6" height="6" rx="1" fill="#1b1b1b"/><rect class="day" x="374" y="85" width="6" height="6" rx="1" fill="#1b1b1b"/><rect class="day" x="374" y="92" width="6" height="6" rx="1" fill="#1b1b1b"/><rect class="day" x="374" y="99" width="6" height="6" rx="1" fill="#1b1b1b"/><rect class="day" x="374" y="106" width="6" height="6" rx="1" fill="#1b1b1b"/>
<rect class="day" x="381" y="64" width="6" height="6" rx="1" fill="#1b1b1b"/><rect class="day" x="381" y="71" width="6" height="6" rx="1" fill="#1b1b1b"/><rect class="day" x="381" y="78" width="6" height="6" rx="1" fill="#1b1b1b"/><rect class="day" x="381" y="85" width="6" height="6" rx="1" fill="#cc4406"/><rect class="day" x="381" y="92" width="6" height="6" rx="1" fill="#1b1b1b"/><rect class="day" x="381" y="99" width="6" height="6" rx="1" fill="#cc4406"/><rect class="day" x="381" y="106" width="6" height="6" rx="1" fill="#ff4d00"/>
<rect class="day" x="388" y="64" width="6" height="6" rx="1" fill="#1b1b1b"/><rect class="day" x="388" y="71" width="6" height="6" rx="1" fill="#cc4406"/><rect class="day" x="388" y="78" width="6" height="6" rx="1" fill="#1b1b1b"/><rect class="day" x="388" y="85" width="6" height="6" rx="1" fill="#1b1b1b"/><rect class="day" x="388" y="92" width="6" height="6" rx="1" fill="#1b1b1b"/><rect class="day" x="388" y="99" width="6" height="6" rx="1" fill="#1b1b1b"/><rect class="day" x="388" y="106" width="6" height="6" rx="1" fill="#4a2210"/>
<text x="24" y="131" font-size="10" fill="#8a8a8a">less</text>
<rect x="52" y="123" width="7" height="7" rx="1" fill="#1b1b1b"/><rect x="61" y="123" width="7" height="7" rx="1" fill="#4a2210"/><rect x="70" y="123" width="7" height="7" rx="1" fill="#8a3a12"/><rect x="79" y="123" width="7" height="7" rx="1" fill="#cc4406"/><rect x="88" y="123" width="7" height="7" rx="1" fill="#ff4d00"/>
<text x="103" y="131" font-size="10" fill="#8a8a8a">more</text>
</svg>