<svg xmlns="http://www.w3.org/2000/svg" width="420" height="200" viewBox="0 0 420 200" font-family="ui-monospace, SFMono-Regular, Menlo, monospace">
<rect width="420" height="200" rx="8" fill="#0c0c0c" stroke="#262626"/>
<circle cx="18" cy="16" r="5" fill="#ff5f57"/>
<circle cx="36" cy="16" r="5" fill="#febc2e"/>
<circle cx="54" cy="16" r="5" fill="#28c840"/>
<text x="210" y="20" text-anchor="middle" font-size="11" fill="#8a8a8a">ntchz@shipfold: stats</text>
<line x1="0" y1="30" x2="420" y2="30" stroke="#262626"/>
<text x="24" y="52" font-size="12" fill="#8a8a8a">$ git stats --past-year</text>
<text x="24" y="76" font-size="13" fill="#e8e8e8">commits <tspan fill="#ff4d00" font-weight="bold">197</tspan>   pull requests <tspan fill="#ff4d00" font-weight="bold">45</tspan></text>
<text x="24" y="98" font-size="12" fill="#8a8a8a">top languages</text>
<rect x="24" y="109" width="97" height="10" rx="2" fill="#ff4d00" opacity="1"/>
<text x="152" y="118" font-size="12" fill="#e8e8e8">TypeScript</text>
<text x="396" y="118" font-size="12" fill="#8a8a8a" text-anchor="end">81%</text>
<rect x="24" y="129" width="9" height="10" rx="2" fill="#ff4d00" opacity="0.8"/>
<text x="152" y="138" font-size="12" fill="#e8e8e8">Python</text>
<text x="396" y="138" font-size="12" fill="#8a8a8a" text-anchor="end">7%</text>
<rect x="24" y="149" width="8" height="10" rx="2" fill="#ff4d00" opacity="0.6"/>
<text x="152" y="158" font-size="12" fill="#e8e8e8">HTML</text>
<text x="396" y="158" font-size="12" fill="#8a8a8a" text-anchor="end">7%</text>
<rect x="24" y="169" width="2" height="10" rx="2" fill="#ff4d00" opacity="0.3999999999999999"/>
<text x="152" y="178" font-size="12" fill="#e8e8e8">CSS</text>
<text x="396" y="178" font-size="12" fill="#8a8a8a" text-anchor="end">2%</text>
</svg>